<svg xmlns="http://www.w3.org/2000/svg" viewBox="0 0 200 240" width="200" height="240">
  <!-- PanCROcio - Digital CRO Analyst Character -->

  <!-- Body / Lab Coat -->
  <rect x="60" y="120" width="80" height="80" rx="16" fill="#f0f4ff" stroke="#c7d2fe" stroke-width="2"/>
  <!-- Coat lapels -->
  <path d="M80 120 L100 145 L120 120" fill="none" stroke="#818cf8" stroke-width="2"/>
  <!-- Tie / accent -->
  <rect x="96" y="140" width="8" height="30" rx="3" fill="#EC5F29"/>
  <polygon points="96,170 104,170 100,180" fill="#EC5F29"/>

  <!-- Head -->
  <circle cx="100" cy="80" r="42" fill="#fbbf24" stroke="#f59e0b" stroke-width="2"/>

  <!-- Hair / Quiff -->
  <path d="M62 68 Q70 30 100 38 Q130 30 138 68" fill="#92400e" stroke="#78350f" stroke-width="1.5"/>

  <!-- Eyes -->
  <g>
    <!-- Left eye -->
    <ellipse cx="84" cy="78" rx="10" ry="11" fill="white"/>
    <circle cx="86" cy="79" r="5" fill="#1e293b">
      <animate attributeName="cx" values="86;84;86" dur="4s" repeatCount="indefinite"/>
    </circle>
    <circle cx="87" cy="77" r="2" fill="white"/>

    <!-- Right eye -->
    <ellipse cx="116" cy="78" rx="10" ry="11" fill="white"/>
    <circle cx="118" cy="79" r="5" fill="#1e293b">
      <animate attributeName="cx" values="118;116;118" dur="4s" repeatCount="indefinite"/>
    </circle>
    <circle cx="119" cy="77" r="2" fill="white"/>
  </g>

  <!-- Glasses -->
  <circle cx="84" cy="78" r="14" fill="none" stroke="#475569" stroke-width="2.5"/>
  <circle cx="116" cy="78" r="14" fill="none" stroke="#475569" stroke-width="2.5"/>
  <line x1="98" y1="78" x2="102" y2="78" stroke="#475569" stroke-width="2.5"/>
  <line x1="70" y1="76" x2="62" y2="72" stroke="#475569" stroke-width="2"/>
  <line x1="130" y1="76" x2="138" y2="72" stroke="#475569" stroke-width="2"/>

  <!-- Smile -->
  <path d="M85 95 Q100 108 115 95" fill="none" stroke="#92400e" stroke-width="2.5" stroke-linecap="round"/>

  <!-- Eyebrows -->
  <path d="M74 64 Q84 58 94 64" fill="none" stroke="#78350f" stroke-width="2.5" stroke-linecap="round">
    <animate attributeName="d" values="M74 64 Q84 58 94 64;M74 62 Q84 55 94 62;M74 64 Q84 58 94 64" dur="3s" repeatCount="indefinite"/>
  </path>
  <path d="M106 64 Q116 58 126 64" fill="none" stroke="#78350f" stroke-width="2.5" stroke-linecap="round">
    <animate attributeName="d" values="M106 64 Q116 58 126 64;M106 62 Q116 55 126 62;M106 64 Q116 58 126 64" dur="3s" repeatCount="indefinite"/>
  </path>

  <!-- Left arm holding magnifying glass -->
  <g>
    <path d="M60 140 Q30 150 28 170" fill="none" stroke="#fbbf24" stroke-width="10" stroke-linecap="round"/>
    <!-- Magnifying glass -->
    <circle cx="22" cy="185" r="14" fill="none" stroke="#475569" stroke-width="3"/>
    <circle cx="22" cy="185" r="10" fill="#dbeafe" opacity="0.5"/>
    <line x1="32" y1="195" x2="42" y2="208" stroke="#475569" stroke-width="3.5" stroke-linecap="round"/>
    <!-- Glass shine -->
    <path d="M16 180 Q18 176 22 178" fill="none" stroke="white" stroke-width="1.5" stroke-linecap="round"/>

    <!-- Magnifying glass subtle animation -->
    <animateTransform attributeName="transform" type="rotate" values="0 22 185;-5 22 185;0 22 185;5 22 185;0 22 185" dur="3s" repeatCount="indefinite"/>
  </g>

  <!-- Right arm holding chart -->
  <g>
    <path d="M140 140 Q165 148 168 168" fill="none" stroke="#fbbf24" stroke-width="10" stroke-linecap="round"/>
    <!-- Clipboard / Chart -->
    <rect x="155" y="165" width="30" height="38" rx="4" fill="white" stroke="#cbd5e1" stroke-width="1.5"/>
    <rect x="155" y="165" width="30" height="8" rx="4" fill="#EC5F29"/>
    <!-- Mini bar chart -->
    <rect x="160" y="192" width="5" height="6" fill="#22c55e"/>
    <rect x="167" y="188" width="5" height="10" fill="#f59e0b"/>
    <rect x="174" y="183" width="5" height="15" fill="#EC5F29">
      <animate attributeName="height" values="15;18;15" dur="2s" repeatCount="indefinite"/>
      <animate attributeName="y" values="183;180;183" dur="2s" repeatCount="indefinite"/>
    </rect>

    <animateTransform attributeName="transform" type="rotate" values="0 168 168;3 168 168;0 168 168" dur="2.5s" repeatCount="indefinite"/>
  </g>

  <!-- Pocket with CRO badge -->
  <rect x="75" y="158" width="20" height="15" rx="3" fill="#e0e7ff" stroke="#818cf8" stroke-width="1"/>
  <text x="85" y="169" font-size="7" font-weight="bold" fill="#4338ca" text-anchor="middle" font-family="sans-serif">CRO</text>

  <!-- Feet -->
  <ellipse cx="82" cy="202" rx="14" ry="6" fill="#475569"/>
  <ellipse cx="118" cy="202" rx="14" ry="6" fill="#475569"/>
</svg>
