<svg width="337" height="85" viewBox="0 0 337 85" fill="none" xmlns="http://www.w3.org/2000/svg">
<g clip-path="url(#clip0_1705_401)">
<path d="M82.1801 42.4C79.4101 42.4 77.0601 41.9 75.1301 40.9C73.2001 39.9 71.4601 38.43 69.9301 36.5L73.8301 32.6C74.8001 34 75.9501 35.09 77.2801 35.87C78.6101 36.65 80.3101 37.04 82.3801 37.04C84.3101 37.04 85.8601 36.64 87.0001 35.84C88.1501 35.04 88.7301 33.94 88.7301 32.54C88.7301 31.37 88.4301 30.42 87.8301 29.69C87.2301 28.96 86.4401 28.35 85.4501 27.87C84.4701 27.39 83.3801 26.95 82.2001 26.57C81.0201 26.19 79.8301 25.75 78.6501 25.27C77.4701 24.79 76.3801 24.18 75.4001 23.44C74.4201 22.71 73.6301 21.76 73.0201 20.59C72.4201 19.42 72.1201 17.94 72.1201 16.14C72.1201 14.07 72.6301 12.31 73.6401 10.87C74.6601 9.42001 76.0301 8.31001 77.7601 7.54001C79.4901 6.77001 81.4301 6.39001 83.5601 6.39001C85.8601 6.39001 87.9201 6.84001 89.7301 7.74001C91.5501 8.64001 93.0201 9.79001 94.1501 11.19L90.2501 15.09C89.2501 13.96 88.2101 13.11 87.1301 12.56C86.0501 12.01 84.8101 11.74 83.4001 11.74C81.6701 11.74 80.3101 12.09 79.3301 12.79C78.3501 13.49 77.8501 14.47 77.8501 15.74C77.8501 16.81 78.1501 17.66 78.7501 18.31C79.3501 18.96 80.1401 19.51 81.1301 19.96C82.1101 20.41 83.2001 20.84 84.3801 21.23C85.5601 21.63 86.7501 22.08 87.9301 22.58C89.1101 23.08 90.2001 23.72 91.1801 24.5C92.1601 25.28 92.9501 26.29 93.5601 27.52C94.1601 28.75 94.4601 30.3 94.4601 32.17C94.4601 35.3 93.35 37.79 91.1301 39.62C88.9401 41.48 85.9501 42.4 82.1801 42.4Z" fill="white"/>
<path d="M110.53 42.4C108.16 42.4 106.02 41.85 104.1 40.75C102.18 39.65 100.68 38.15 99.5801 36.25C98.4801 34.35 97.9301 32.23 97.9301 29.9C97.9301 27.53 98.4801 25.41 99.5801 23.52C100.68 21.64 102.19 20.14 104.1 19.04C106.02 17.94 108.16 17.39 110.53 17.39C112.4 17.39 114.14 17.75 115.76 18.47C117.38 19.19 118.75 20.21 119.88 21.54L116.28 25.19C115.58 24.36 114.74 23.73 113.76 23.31C112.78 22.89 111.7 22.69 110.53 22.69C109.16 22.69 107.95 23 106.91 23.62C105.86 24.24 105.04 25.08 104.46 26.14C103.88 27.21 103.58 28.46 103.58 29.89C103.58 31.29 103.87 32.53 104.46 33.62C105.04 34.7 105.86 35.55 106.91 36.17C107.96 36.79 109.17 37.1 110.53 37.1C111.7 37.1 112.77 36.89 113.76 36.48C114.74 36.06 115.58 35.44 116.28 34.6L119.88 38.25C118.75 39.58 117.37 40.61 115.76 41.32C114.14 42.04 112.4 42.4 110.53 42.4Z" fill="white"/>
<path d="M133.88 42.4C131.71 42.4 129.76 41.85 128 40.75C126.24 39.65 124.87 38.16 123.85 36.27C122.83 34.39 122.32 32.28 122.32 29.94C122.32 27.57 122.83 25.45 123.85 23.56C124.87 21.68 126.25 20.18 128 19.06C129.75 17.94 131.71 17.39 133.88 17.39C135.71 17.39 137.34 17.78 138.76 18.56C140.18 19.34 141.3 20.42 142.14 21.79C142.97 23.16 143.39 24.71 143.39 26.44V33.34C143.39 35.07 142.98 36.62 142.17 37.99C141.35 39.36 140.23 40.43 138.79 41.22C137.35 42.01 135.72 42.4 133.88 42.4ZM134.78 37.2C136.81 37.2 138.45 36.52 139.7 35.15C140.95 33.78 141.58 32.03 141.58 29.9C141.58 28.47 141.3 27.2 140.73 26.1C140.16 25 139.37 24.14 138.35 23.52C137.33 22.9 136.14 22.6 134.77 22.6C133.44 22.6 132.26 22.91 131.24 23.52C130.22 24.14 129.42 25 128.84 26.1C128.26 27.2 127.96 28.47 127.96 29.9C127.96 31.33 128.25 32.6 128.84 33.7C129.42 34.8 130.22 35.66 131.24 36.28C132.27 36.89 133.45 37.2 134.78 37.2ZM141.23 41.9V35.45L142.18 29.6L141.23 23.8V17.9H146.73V41.9H141.23Z" fill="white"/>
<path d="M152.83 41.9V17.9H158.33V41.9H152.83ZM169.28 41.9V28.05C169.28 26.45 168.77 25.13 167.75 24.1C166.73 23.07 165.43 22.55 163.83 22.55C162.76 22.55 161.81 22.78 160.98 23.25C160.15 23.72 159.5 24.37 159.03 25.2C158.56 26.03 158.33 26.98 158.33 28.05L156.18 26.85C156.18 25.02 156.58 23.39 157.38 21.97C158.18 20.55 159.29 19.44 160.71 18.62C162.13 17.8 163.72 17.39 165.49 17.39C167.29 17.39 168.89 17.85 170.29 18.77C171.69 19.69 172.79 20.87 173.59 22.32C174.39 23.77 174.79 25.28 174.79 26.85V41.9H169.28Z" fill="white"/>
<path d="M191.73 42.4C189.33 42.4 187.24 41.94 185.45 41.02C183.66 40.1 182.28 38.84 181.3 37.22C180.32 35.6 179.83 33.76 179.83 31.69C179.83 29.59 180.41 27.71 181.55 26.04C182.7 24.37 184.39 23.02 186.63 21.99L189.18 25.34C187.95 26.01 187 26.83 186.33 27.81C185.66 28.79 185.33 30.04 185.33 31.54C185.33 32.74 185.61 33.76 186.16 34.59C186.71 35.42 187.49 36.06 188.49 36.51C189.49 36.96 190.64 37.18 191.94 37.18C193.64 37.18 195.05 36.83 196.17 36.13C197.29 35.43 198.13 34.6 198.69 33.63L202.29 37.83C201.59 38.7 200.69 39.47 199.59 40.15C198.49 40.83 197.27 41.38 195.94 41.77C194.61 42.16 193.2 42.4 191.73 42.4ZM203.68 41.9L187.08 23.75C185.85 22.38 184.92 21.08 184.3 19.85C183.68 18.62 183.38 17.25 183.38 15.75C183.38 13.98 183.81 12.39 184.68 10.98C185.55 9.56001 186.73 8.44001 188.23 7.60001C189.73 6.77001 191.45 6.35001 193.38 6.35001C194.85 6.35001 196.18 6.59001 197.38 7.07001C198.58 7.55001 199.64 8.19001 200.55 8.97001C201.46 9.75001 202.23 10.61 202.83 11.54L198.88 15.04C198.15 14.04 197.36 13.22 196.5 12.59C195.65 11.96 194.61 11.64 193.38 11.64C192.11 11.64 191.05 12.02 190.18 12.76C189.31 13.5 188.88 14.45 188.88 15.59C188.88 16.72 189.11 17.66 189.58 18.39C190.05 19.12 190.7 19.97 191.53 20.94L210.28 41.89H203.68V41.9Z" fill="white"/>
<path d="M214.58 41.9V6.89999H220.33V41.9H214.58ZM218.53 41.9V36.9H228.58C230.35 36.9 231.71 36.35 232.68 35.25C233.65 34.15 234.13 32.88 234.13 31.45C234.13 30.48 233.91 29.58 233.48 28.75C233.05 27.92 232.41 27.25 231.58 26.75C230.75 26.25 229.75 26 228.58 26H218.53V21H227.73C229.23 21 230.43 20.62 231.33 19.85C232.23 19.08 232.68 17.95 232.68 16.45C232.68 14.95 232.23 13.82 231.33 13.05C230.43 12.28 229.23 11.9 227.73 11.9H218.53V6.89999H227.88C230.25 6.89999 232.21 7.32999 233.78 8.19999C235.35 9.06999 236.51 10.18 237.28 11.55C238.05 12.92 238.43 14.38 238.43 15.95C238.43 17.78 237.92 19.4 236.9 20.8C235.88 22.2 234.39 23.33 232.43 24.2L232.88 22.4C235.08 23.3 236.8 24.57 238.03 26.2C239.26 27.83 239.88 29.75 239.88 31.95C239.88 33.75 239.44 35.4 238.56 36.9C237.68 38.4 236.38 39.61 234.66 40.52C232.94 41.44 230.83 41.9 228.33 41.9H218.53Z" fill="#EB6029"/>
<path d="M255.93 42.4C253.6 42.4 251.48 41.84 249.58 40.73C247.68 39.61 246.17 38.11 245.05 36.2C243.93 34.3 243.38 32.18 243.38 29.85C243.38 27.52 243.94 25.42 245.05 23.55C246.17 21.68 247.67 20.19 249.58 19.07C251.48 17.95 253.6 17.4 255.93 17.4C258.3 17.4 260.43 17.95 262.33 19.05C264.23 20.15 265.74 21.64 266.85 23.53C267.97 25.41 268.53 27.52 268.53 29.86C268.53 32.19 267.97 34.31 266.85 36.21C265.73 38.11 264.23 39.62 262.33 40.74C260.43 41.84 258.3 42.4 255.93 42.4ZM255.93 37.1C257.3 37.1 258.51 36.79 259.55 36.17C260.6 35.55 261.42 34.69 262 33.6C262.58 32.5 262.88 31.25 262.88 29.85C262.88 28.45 262.58 27.22 261.98 26.15C261.38 25.08 260.56 24.24 259.53 23.63C258.5 23.01 257.3 22.7 255.93 22.7C254.6 22.7 253.41 23.01 252.35 23.63C251.3 24.25 250.48 25.09 249.9 26.15C249.32 27.22 249.02 28.45 249.02 29.85C249.02 31.25 249.31 32.5 249.9 33.6C250.48 34.7 251.3 35.56 252.35 36.17C253.41 36.79 254.6 37.1 255.93 37.1Z" fill="#EB6029"/>
<path d="M284.08 42.4C281.75 42.4 279.63 41.84 277.73 40.73C275.83 39.61 274.32 38.11 273.2 36.2C272.08 34.3 271.53 32.18 271.53 29.85C271.53 27.52 272.09 25.42 273.2 23.55C274.32 21.68 275.82 20.19 277.73 19.07C279.63 17.95 281.75 17.4 284.08 17.4C286.45 17.4 288.58 17.95 290.48 19.05C292.38 20.15 293.89 21.64 295 23.53C296.12 25.41 296.68 27.52 296.68 29.86C296.68 32.19 296.12 34.31 295 36.21C293.88 38.11 292.38 39.62 290.48 40.74C288.58 41.84 286.45 42.4 284.08 42.4ZM284.08 37.1C285.45 37.1 286.66 36.79 287.7 36.17C288.75 35.55 289.57 34.69 290.15 33.6C290.73 32.5 291.03 31.25 291.03 29.85C291.03 28.45 290.73 27.22 290.13 26.15C289.53 25.08 288.71 24.24 287.68 23.63C286.65 23.01 285.45 22.7 284.08 22.7C282.75 22.7 281.56 23.01 280.5 23.63C279.45 24.25 278.63 25.09 278.05 26.15C277.47 27.22 277.17 28.45 277.17 29.85C277.17 31.25 277.46 32.5 278.05 33.6C278.63 34.7 279.45 35.56 280.5 36.17C281.56 36.79 282.75 37.1 284.08 37.1Z" fill="#EB6029"/>
<path d="M309.08 42.4C307.75 42.4 306.46 42.23 305.23 41.88C304 41.53 302.86 41.03 301.83 40.38C300.8 39.73 299.9 38.94 299.13 38L302.63 34.5C303.46 35.47 304.42 36.19 305.51 36.67C306.59 37.15 307.82 37.4 309.18 37.4C310.41 37.4 311.35 37.22 311.98 36.85C312.61 36.48 312.93 35.95 312.93 35.25C312.93 34.52 312.63 33.95 312.03 33.55C311.43 33.15 310.65 32.81 309.71 32.53C308.76 32.25 307.76 31.95 306.71 31.65C305.66 31.35 304.66 30.94 303.71 30.42C302.76 29.9 301.98 29.19 301.38 28.3C300.78 27.4 300.48 26.23 300.48 24.8C300.48 23.27 300.84 21.95 301.56 20.85C302.28 19.75 303.29 18.9 304.61 18.3C305.93 17.7 307.5 17.4 309.34 17.4C311.27 17.4 312.98 17.74 314.46 18.42C315.94 19.1 317.18 20.13 318.18 21.5L314.68 25C313.98 24.13 313.18 23.48 312.28 23.05C311.38 22.62 310.35 22.4 309.18 22.4C308.08 22.4 307.23 22.57 306.63 22.9C306.03 23.23 305.73 23.72 305.73 24.35C305.73 25.02 306.03 25.53 306.63 25.9C307.23 26.27 308.01 26.58 308.96 26.85C309.91 27.12 310.91 27.41 311.96 27.73C313.01 28.05 314.01 28.48 314.96 29.03C315.91 29.58 316.68 30.31 317.28 31.23C317.88 32.15 318.18 33.34 318.18 34.8C318.18 37.13 317.36 38.98 315.73 40.35C314.1 41.72 311.88 42.4 309.08 42.4Z" fill="#EB6029"/>
<path d="M320.63 22.9V17.9H337.63V22.9H320.63ZM326.38 41.9V7.89999H331.88V41.9H326.38Z" fill="#EB6029"/>
<path d="M243.44 79.66V65.5H244.86V72.56L244.58 74.82L244.86 77.14V79.66H243.44ZM248.32 79.86C247.6 79.86 246.95 79.71 246.38 79.42C245.81 79.13 245.34 78.72 244.97 78.21C244.6 77.7 244.38 77.1 244.3 76.42V73.48C244.38 72.79 244.61 72.18 244.98 71.67C245.35 71.16 245.83 70.76 246.41 70.48C246.99 70.2 247.63 70.06 248.32 70.06C249.19 70.06 249.97 70.28 250.66 70.71C251.35 71.14 251.9 71.73 252.31 72.47C252.72 73.21 252.92 74.05 252.92 74.98C252.92 75.9 252.72 76.73 252.32 77.46C251.92 78.19 251.37 78.78 250.67 79.21C249.97 79.65 249.19 79.86 248.32 79.86ZM248.06 78.52C248.73 78.52 249.31 78.37 249.82 78.07C250.33 77.77 250.73 77.35 251.02 76.81C251.31 76.27 251.46 75.65 251.46 74.96C251.46 74.27 251.31 73.65 251.02 73.11C250.73 72.57 250.33 72.15 249.83 71.85C249.33 71.55 248.75 71.4 248.1 71.4C247.45 71.4 246.87 71.55 246.37 71.85C245.87 72.15 245.48 72.57 245.2 73.11C244.92 73.65 244.78 74.27 244.78 74.96C244.78 75.65 244.92 76.27 245.2 76.81C245.48 77.35 245.87 77.77 246.36 78.07C246.86 78.37 247.42 78.52 248.06 78.52Z" fill="white"/>
<path d="M258.28 79.72L254.14 70.26H255.7L259.02 78.14H258.44L261.92 70.26H263.5L259.08 79.72H258.28ZM255.7 83.62L258.3 78.28L259.08 79.72L257.26 83.62H255.7Z" fill="white"/>
<path d="M271.28 79.77C271.19 79.67 271.14 79.56 271.14 79.43V62.23C271.14 62.05 271.19 61.91 271.29 61.8C271.39 61.69 271.52 61.64 271.68 61.64H278.73C281.21 61.64 283.1 62.05 284.4 62.86C285.7 63.67 286.35 64.87 286.35 66.44C286.35 67.33 286.11 68.08 285.62 68.71C285.14 69.34 284.3 69.91 283.12 70.43C283.09 70.45 283.07 70.48 283.07 70.52C283.07 70.56 283.09 70.59 283.12 70.61C284.43 71.07 285.37 71.64 285.94 72.32C286.51 73 286.79 73.88 286.79 74.97C286.79 76.64 286.15 77.89 284.88 78.7C283.61 79.51 281.67 79.92 279.08 79.92H271.64C271.49 79.91 271.37 79.86 271.28 79.77ZM279.1 68.97C279.77 68.97 280.33 68.79 280.76 68.44C281.19 68.09 281.41 67.61 281.41 67C281.41 66.39 281.18 65.88 280.71 65.51C280.24 65.14 279.64 64.96 278.9 64.96H276.63C276.43 64.96 276.3 64.99 276.22 65.06C276.15 65.13 276.11 65.24 276.11 65.4V68.46C276.11 68.64 276.14 68.77 276.18 68.85C276.23 68.93 276.33 68.97 276.48 68.97H279.1ZM278.95 76.59C279.8 76.59 280.46 76.39 280.92 75.99C281.38 75.59 281.61 75.07 281.61 74.45C281.61 73.82 281.38 73.31 280.92 72.94C280.46 72.57 279.85 72.39 279.1 72.39H276.64C276.44 72.39 276.31 72.43 276.23 72.5C276.16 72.57 276.12 72.7 276.12 72.88V76.11C276.12 76.29 276.15 76.42 276.19 76.49C276.24 76.56 276.34 76.6 276.49 76.6H278.95V76.59Z" fill="white"/>
<path d="M319.45 69.2C318.92 69.2 318.49 69.3 318.13 69.5C317.78 69.7 317.6 69.97 317.6 70.31C317.6 70.49 317.68 70.65 317.83 70.79C317.98 70.93 318.29 71.06 318.75 71.17L321.46 71.79C322.84 72.1 323.84 72.61 324.48 73.32C325.11 74.03 325.43 74.87 325.43 75.86C325.43 77.21 324.88 78.26 323.77 79.03C322.66 79.8 321.2 80.17 319.37 80.17C317.91 80.17 316.65 79.92 315.59 79.42C314.53 78.92 313.79 78.28 313.36 77.49C313.28 77.36 313.24 77.24 313.24 77.12C313.24 76.99 313.3 76.89 313.41 76.82L315.33 75.83C315.46 75.76 315.58 75.73 315.7 75.73C315.83 75.73 315.94 75.78 316.02 75.88C316.41 76.37 316.85 76.75 317.31 77.02C317.78 77.29 318.44 77.43 319.29 77.43C319.95 77.43 320.48 77.33 320.9 77.13C321.32 76.93 321.53 76.65 321.53 76.29C321.53 76.06 321.43 75.86 321.22 75.7C321.01 75.54 320.66 75.4 320.15 75.31L317.64 74.82C315.04 74.31 313.75 73.02 313.75 70.95C313.75 70.11 313.98 69.37 314.43 68.71C314.88 68.05 315.54 67.54 316.41 67.17C317.28 66.8 318.31 66.62 319.49 66.62C320.67 66.62 321.81 66.85 322.77 67.3C323.73 67.75 324.4 68.31 324.79 68.96C324.91 69.12 324.96 69.26 324.96 69.38C324.96 69.5 324.9 69.58 324.79 69.63L322.77 70.62C322.67 70.67 322.59 70.69 322.52 70.69C322.37 70.69 322.23 70.61 322.1 70.44C321.46 69.61 320.57 69.2 319.45 69.2Z" fill="white"/>
<path d="M332.24 69.84C332.04 69.84 331.94 69.94 331.94 70.14V75.46C331.94 75.95 332.08 76.31 332.35 76.54C332.62 76.77 333.05 76.88 333.64 76.88H334.82C334.94 76.88 335.03 76.92 335.1 77C335.17 77.08 335.21 77.19 335.21 77.32L335.19 79.09C335.19 79.43 334.98 79.65 334.55 79.73C333.81 79.85 332.77 79.9 331.42 79.9C330.24 79.9 329.3 79.62 328.6 79.06C327.9 78.5 327.55 77.7 327.55 76.67V70.24C327.55 70.09 327.53 69.99 327.48 69.92C327.43 69.85 327.34 69.82 327.21 69.82H325.88C325.52 69.82 325.34 69.66 325.34 69.33V67.26C325.34 66.98 325.5 66.84 325.83 66.84H327.41C327.56 66.84 327.65 66.75 327.68 66.57L328.05 62.87C328.07 62.71 328.1 62.59 328.16 62.51C328.22 62.44 328.32 62.4 328.47 62.4H331.62C331.92 62.4 332.06 62.56 332.06 62.89V66.56C332.06 66.72 332.14 66.81 332.31 66.81H334.75C334.9 66.81 335.02 66.85 335.11 66.92C335.2 66.99 335.25 67.1 335.25 67.23V69.32C335.25 69.65 335.06 69.81 334.68 69.81L332.24 69.84Z" fill="white"/>
<path d="M299.28 75.23H297.92L300.38 70.93C300.26 70.58 300.12 70.25 299.94 69.93C299.37 68.89 298.58 68.07 297.56 67.49C296.54 66.91 295.37 66.62 294.04 66.62C292.71 66.62 291.6 66.91 290.58 67.48C289.55 68.06 288.75 68.86 288.17 69.91C287.59 70.95 287.3 72.14 287.3 73.47C287.3 74.8 287.58 75.93 288.15 76.94C288.72 77.96 289.51 78.75 290.53 79.32C291.55 79.89 292.71 80.17 294.03 80.17C295.34 80.17 296.51 79.88 297.54 79.31C298.22 78.93 298.8 78.44 299.29 77.86L299.28 75.23ZM295.8 76.34C295.42 76.98 294.84 77.3 294.05 77.3C293.26 77.3 292.7 76.98 292.31 76.33C291.92 75.68 291.73 74.69 291.73 73.36C291.73 72.03 291.92 71.01 292.31 70.35C292.7 69.69 293.27 69.36 294.05 69.36C294.82 69.36 295.4 69.69 295.79 70.35C296.18 71.01 296.37 72.01 296.37 73.36C296.37 74.71 296.18 75.7 295.8 76.34Z" fill="white"/>
<path d="M312.66 69.92C312.09 68.88 311.3 68.06 310.28 67.48C309.26 66.9 308.09 66.61 306.76 66.61C305.43 66.61 304.32 66.9 303.3 67.47C302.27 68.05 301.47 68.85 300.89 69.9C300.7 70.23 300.55 70.58 300.43 70.94L302.98 75.28L301.5 75.27V77.85C301.98 78.44 302.56 78.92 303.25 79.31C304.27 79.88 305.43 80.16 306.75 80.16C308.06 80.16 309.23 79.87 310.26 79.3C311.29 78.73 312.09 77.93 312.66 76.91C313.23 75.89 313.52 74.74 313.52 73.46C313.51 72.18 313.23 70.97 312.66 69.92ZM308.51 76.34C308.13 76.98 307.55 77.3 306.76 77.3C305.97 77.3 305.41 76.98 305.02 76.33C304.63 75.68 304.44 74.69 304.44 73.36C304.44 72.03 304.63 71.01 305.02 70.35C305.41 69.69 305.98 69.36 306.76 69.36C307.54 69.36 308.11 69.69 308.5 70.35C308.89 71.01 309.08 72.01 309.08 73.36C309.08 74.71 308.89 75.7 308.51 76.34Z" fill="white"/>
<path d="M18.28 46.01H10.31C7.94996 46.01 6.02996 44.09 6.02996 41.73V33.76C6.02996 33.25 5.61996 32.85 5.11996 32.85C4.61996 32.85 4.20996 33.26 4.20996 33.76V41.73C4.20996 45.1 6.94996 47.84 10.32 47.84H18.29C18.8 47.84 19.2 47.43 19.2 46.93C19.2 46.43 18.79 46.01 18.28 46.01Z" fill="white"/>
<path d="M47.16 32.86C46.65 32.86 46.25 33.27 46.25 33.77V41.74C46.25 44.1 44.33 46.02 41.97 46.02H34.01C33.5 46.02 33.1 46.43 33.1 46.93C33.1 47.43 33.51 47.84 34.01 47.84H41.97C45.34 47.84 48.08 45.1 48.08 41.73V33.76C48.08 33.27 47.67 32.86 47.16 32.86Z" fill="white"/>
<path d="M5.11995 18.96C5.62995 18.96 6.02995 18.55 6.02995 18.05V10.09C6.02995 7.73002 7.94995 5.81002 10.31 5.81002H18.28C18.79 5.81002 19.19 5.40002 19.19 4.90002C19.19 4.40002 18.78 3.99002 18.28 3.99002H10.31C6.93995 3.99002 4.19995 6.73002 4.19995 10.1V18.06C4.20995 18.55 4.61995 18.96 5.11995 18.96Z" fill="white"/>
<path d="M34.01 5.81001H41.97C44.33 5.81001 46.25 7.73001 46.25 10.09V18.05C46.25 18.56 46.66 18.96 47.16 18.96C47.66 18.96 48.07 18.55 48.07 18.05V10.09C48.07 6.72001 45.33 3.98001 41.96 3.98001H34C33.49 3.98001 33.09 4.39001 33.09 4.89001C33.09 5.39001 33.5 5.81001 34.01 5.81001Z" fill="white"/>
<path d="M41.7401 11.97C42.2601 11.97 42.68 12.39 42.68 12.91V21.99C42.68 22.29 42.5301 22.58 42.2901 22.75C42.2801 22.75 42.2801 22.76 42.2701 22.76C41.6501 23.2 40.8 22.75 40.8 22V12.91C40.8 12.4 41.2201 11.97 41.7401 11.97Z" fill="#4D4E5C"/>
<path d="M19.78 12.91V22.11C19.78 22.63 19.36 23.05 18.84 23.05C18.32 23.05 17.9 22.63 17.9 22.11V12.91C17.9 12.39 18.32 11.97 18.84 11.97C19.36 11.97 19.78 12.4 19.78 12.91Z" fill="#4D4E5C"/>
<path d="M35.05 17.51V12.92C35.05 12.4 34.63 11.98 34.11 11.98C33.59 11.98 33.17 12.4 33.17 12.92V17.51C33.17 18.03 33.59 18.45 34.11 18.45C34.63 18.45 35.05 18.03 35.05 17.51Z" fill="#4D4E5C"/>
<path d="M11.21 11.97C11.73 11.97 12.15 12.39 12.15 12.91V20.16C12.15 20.92 11.3 21.36 10.68 20.92C10.67 20.92 10.67 20.91 10.66 20.91C10.41 20.73 10.27 20.45 10.27 20.15V12.92C10.27 12.4 10.69 11.97 11.21 11.97Z" fill="#4D4E5C"/>
<path d="M15.0201 11.97C15.5401 11.97 15.9601 12.39 15.9601 12.91V16.79C15.9601 17.31 15.5401 17.73 15.0201 17.73C14.5001 17.73 14.0801 17.31 14.0801 16.79V12.91C14.0801 12.4 14.5001 11.97 15.0201 11.97Z" fill="#4D4E5C"/>
<path d="M37.92 11.97C38.44 11.97 38.86 12.39 38.86 12.91V19.14C38.86 19.65 38.46 20.08 37.95 20.1C37.41 20.12 36.97 19.69 36.97 19.16V12.91C36.98 12.4 37.41 11.97 37.92 11.97Z" fill="#4D4E5C"/>
<path d="M26.47 11.97C26.99 11.97 27.41 12.39 27.41 12.91V22.01C27.41 22.27 27.3 22.51 27.13 22.68C26.96 22.85 26.72 22.96 26.45 22.96C25.93 22.95 25.52 22.52 25.52 22V12.92C25.53 12.4 25.95 11.97 26.47 11.97Z" fill="#4D4E5C"/>
<path d="M22.66 11.97C23.18 11.97 23.6 12.39 23.6 12.91V20C23.6 20.57 23.1 21 22.53 20.92C22.52 20.92 22.52 20.92 22.51 20.92C22.05 20.85 21.71 20.46 21.71 20V12.91C21.72 12.4 22.14 11.97 22.66 11.97Z" fill="#4D4E5C"/>
<path d="M30.29 11.97C30.81 11.97 31.23 12.39 31.23 12.91V20.36C31.23 20.62 31.12 20.86 30.95 21.03C30.78 21.2 30.54 21.31 30.27 21.31C29.75 21.3 29.34 20.87 29.34 20.35V12.92C29.35 12.4 29.77 11.97 30.29 11.97Z" fill="#4D4E5C"/>
<path d="M31.23 33.54V41.96C31.23 42.42 30.89 42.82 30.43 42.88C30.42 42.88 30.42 42.88 30.41 42.88C29.85 42.96 29.35 42.52 29.35 41.96V33.54C29.35 33.02 29.77 32.6 30.29 32.6C30.81 32.6 31.23 33.02 31.23 33.54Z" fill="#EB6029"/>
<path d="M41.7401 22.61C42.2601 22.61 42.68 23.03 42.68 23.55V37.37C42.68 37.67 42.5301 37.96 42.2901 38.13C42.2801 38.13 42.2801 38.14 42.2701 38.14C41.6501 38.58 40.8 38.13 40.8 37.38V23.55C40.8 23.03 41.2201 22.61 41.7401 22.61Z" fill="#EB6029"/>
<path d="M19.78 40.55V41.11C19.78 41.73 19.18 42.18 18.58 42C18.57 42 18.57 42 18.56 41.99C18.17 41.87 17.89 41.51 17.89 41.1V40.54C17.89 40.02 18.31 39.6 18.83 39.6C19.36 39.61 19.78 40.03 19.78 40.55Z" fill="#EB6029"/>
<path d="M19.78 23.55V36.44C19.78 36.96 19.36 37.38 18.84 37.38C18.32 37.38 17.9 36.96 17.9 36.44V23.55C17.9 23.03 18.32 22.61 18.84 22.61C19.36 22.61 19.78 23.03 19.78 23.55Z" fill="#EB6029"/>
<path d="M35.05 41.04V23.55C35.05 23.03 34.63 22.61 34.11 22.61C33.59 22.61 33.17 23.03 33.17 23.55V41.04C33.17 41.56 33.59 41.98 34.11 41.98C34.63 41.98 35.05 41.56 35.05 41.04Z" fill="#EB6029"/>
<path d="M11.21 22.61C11.73 22.61 12.15 23.03 12.15 23.55V37.38C12.15 38.14 11.3 38.58 10.68 38.14C10.67 38.14 10.67 38.13 10.66 38.13C10.41 37.95 10.27 37.67 10.27 37.37V23.55C10.27 23.03 10.69 22.61 11.21 22.61Z" fill="#EB6029"/>
<path d="M15.9601 28.65V39.63C15.9601 40.32 15.2401 40.77 14.6201 40.47C14.6101 40.47 14.6101 40.46 14.6001 40.46C14.2801 40.3 14.0801 39.98 14.0801 39.62V28.65C14.0801 28.13 14.5001 27.71 15.0201 27.71C15.5401 27.71 15.9601 28.13 15.9601 28.65Z" fill="#EB6029"/>
<path d="M15.0201 22.61C15.5401 22.61 15.9601 23.03 15.9601 23.55V24.53C15.9601 25.05 15.5401 25.47 15.0201 25.47C14.5001 25.47 14.0801 25.05 14.0801 24.53V23.55C14.0801 23.03 14.5001 22.61 15.0201 22.61Z" fill="#EB6029"/>
<path d="M37.92 22.61C38.44 22.61 38.86 23.03 38.86 23.55V29.25C38.86 29.76 38.46 30.19 37.95 30.21C37.41 30.23 36.97 29.8 36.97 29.27V23.55C36.98 23.03 37.41 22.61 37.92 22.61Z" fill="#EB6029"/>
<path d="M38.87 33.42V39.62C38.87 39.98 38.67 40.3 38.35 40.46C38.34 40.46 38.34 40.47 38.33 40.47C37.71 40.77 36.99 40.32 36.99 39.63V33.39C36.99 33.13 37.1 32.9 37.27 32.72C37.44 32.55 37.68 32.44 37.94 32.44C38.44 32.45 38.87 32.9 38.87 33.42Z" fill="#EB6029"/>
<path d="M26.47 22.61C26.99 22.61 27.41 23.03 27.41 23.55V35.81C27.41 36.07 27.3 36.31 27.13 36.48C26.96 36.65 26.72 36.76 26.45 36.76C25.93 36.75 25.52 36.32 25.52 35.8V23.55C25.53 23.03 25.95 22.61 26.47 22.61Z" fill="#EB6029"/>
<path d="M27.41 39.93V42.23C27.41 42.75 26.99 43.17 26.48 43.17H26.47H26.46C25.94 43.17 25.53 42.75 25.53 42.23V39.96C25.53 39.44 25.94 39 26.45 38.99C26.98 38.98 27.41 39.4 27.41 39.93Z" fill="#EB6029"/>
<path d="M22.66 22.61C23.18 22.61 23.6 23.03 23.6 23.55V41.96C23.6 42.53 23.1 42.96 22.53 42.88C22.52 42.88 22.52 42.88 22.51 42.88C22.05 42.81 21.71 42.42 21.71 41.96V23.55C21.72 23.03 22.14 22.61 22.66 22.61Z" fill="#EB6029"/>
<path d="M30.29 22.61C30.81 22.61 31.23 23.03 31.23 23.55V29.42C31.23 29.68 31.12 29.92 30.95 30.09C30.78 30.26 30.54 30.37 30.27 30.37C29.75 30.36 29.34 29.93 29.34 29.41V23.56C29.35 23.03 29.77 22.61 30.29 22.61Z" fill="#EB6029"/>
<path d="M51.37 21.79H0.91C0.41 21.79 0 22.2 0 22.71C0 23.22 0.41 23.62 0.91 23.62H51.37C51.88 23.62 52.28 23.21 52.28 22.71C52.28 22.21 51.88 21.79 51.37 21.79Z" fill="white"/>
</g>
<defs>
<clipPath id="clip0_1705_401">
<rect width="336.18" height="84.74" fill="white"/>
</clipPath>
</defs>
</svg>